<svg id="visual" viewBox="0 0 900 600" width="900" height="600" xmlns="http://www.w3.org/2000/svg" xmlns:xlink="http://www.w3.org/1999/xlink" version="1.1"><rect x="0" y="0" width="900" height="600" fill="#1B262C"></rect><path d="M0 461L21.5 467.5C43 474 86 487 128.8 488.5C171.7 490 214.3 480 257.2 478.2C300 476.3 343 482.7 385.8 485.3C428.7 488 471.3 487 514.2 480.2C557 473.3 600 460.7 642.8 458.2C685.7 455.7 728.3 463.3 771.2 468.5C814 473.7 857 476.3 878.5 477.7L900 479L900 601L878.5 601C857 601 814 601 771.2 601C728.3 601 685.7 601 642.8 601C600 601 557 601 514.2 601C471.3 601 428.7 601 385.8 601C343 601 300 601 257.2 601C214.3 601 171.7 601 128.8 601C86 601 43 601 21.5 601L0 601Z" fill="#c71212"></path><path d="M0 481L21.5 486.7C43 492.3 86 503.7 128.8 509.2C171.7 514.7 214.3 514.3 257.2 511.2C300 508 343 502 385.8 501.5C428.7 501 471.3 506 514.2 503.7C557 501.3 600 491.7 642.8 484.8C685.7 478 728.3 474 771.2 478C814 482 857 494 878.5 500L900 506L900 601L878.5 601C857 601 814 601 771.2 601C728.3 601 685.7 601 642.8 601C600 601 557 601 514.2 601C471.3 601 428.7 601 385.8 601C343 601 300 601 257.2 601C214.3 601 171.7 601 128.8 601C86 601 43 601 21.5 601L0 601Z" fill="#ce2621"></path><path d="M0 515L21.5 514.2C43 513.3 86 511.7 128.8 512.2C171.7 512.7 214.3 515.3 257.2 514.8C300 514.3 343 510.7 385.8 506.5C428.7 502.3 471.3 497.7 514.2 494.5C557 491.3 600 489.7 642.8 491.3C685.7 493 728.3 498 771.2 501.8C814 505.7 857 508.3 878.5 509.7L900 511L900 601L878.5 601C857 601 814 601 771.2 601C728.3 601 685.7 601 642.8 601C600 601 557 601 514.2 601C471.3 601 428.7 601 385.8 601C343 601 300 601 257.2 601C214.3 601 171.7 601 128.8 601C86 601 43 601 21.5 601L0 601Z" fill="#d5352f"></path><path d="M0 536L21.5 533.7C43 531.3 86 526.7 128.8 528C171.7 529.3 214.3 536.7 257.2 535.5C300 534.3 343 524.7 385.8 524.2C428.7 523.7 471.3 532.3 514.2 534.5C557 536.7 600 532.3 642.8 532.2C685.7 532 728.3 536 771.2 533.8C814 531.7 857 523.3 878.5 519.2L900 515L900 601L878.5 601C857 601 814 601 771.2 601C728.3 601 685.7 601 642.8 601C600 601 557 601 514.2 601C471.3 601 428.7 601 385.8 601C343 601 300 601 257.2 601C214.3 601 171.7 601 128.8 601C86 601 43 601 21.5 601L0 601Z" fill="#dc423c"></path><path d="M0 539L21.5 537.2C43 535.3 86 531.7 128.8 530.8C171.7 530 214.3 532 257.2 536.7C300 541.3 343 548.7 385.8 551.2C428.7 553.7 471.3 551.3 514.2 547.2C557 543 600 537 642.8 538.3C685.7 539.7 728.3 548.3 771.2 550.3C814 552.3 857 547.7 878.5 545.3L900 543L900 601L878.5 601C857 601 814 601 771.2 601C728.3 601 685.7 601 642.8 601C600 601 557 601 514.2 601C471.3 601 428.7 601 385.8 601C343 601 300 601 257.2 601C214.3 601 171.7 601 128.8 601C86 601 43 601 21.5 601L0 601Z" fill="#e24e49"></path><path d="M0 548L21.5 551.8C43 555.7 86 563.3 128.8 566.7C171.7 570 214.3 569 257.2 565C300 561 343 554 385.8 554.2C428.7 554.3 471.3 561.7 514.2 564.3C557 567 600 565 642.8 562.8C685.7 560.7 728.3 558.3 771.2 558.8C814 559.3 857 562.7 878.5 564.3L900 566L900 601L878.5 601C857 601 814 601 771.2 601C728.3 601 685.7 601 642.8 601C600 601 557 601 514.2 601C471.3 601 428.7 601 385.8 601C343 601 300 601 257.2 601C214.3 601 171.7 601 128.8 601C86 601 43 601 21.5 601L0 601Z" fill="#e85a56"></path><path d="M0 587L21.5 586.7C43 586.3 86 585.7 128.8 585.7C171.7 585.7 214.3 586.3 257.2 585.2C300 584 343 581 385.8 580.2C428.7 579.3 471.3 580.7 514.2 580.5C557 580.3 600 578.7 642.8 579.2C685.7 579.7 728.3 582.3 771.2 581.7C814 581 857 577 878.5 575L900 573L900 601L878.5 601C857 601 814 601 771.2 601C728.3 601 685.7 601 642.8 601C600 601 557 601 514.2 601C471.3 601 428.7 601 385.8 601C343 601 300 601 257.2 601C214.3 601 171.7 601 128.8 601C86 601 43 601 21.5 601L0 601Z" fill="#ed6663"></path></svg>